<mxfile host="app.diagrams.net" modified="2024-07-04T15:10:38.882Z" agent="Mozilla/5.0 (X11; Ubuntu; Linux x86_64; rv:126.0) Gecko/20100101 Firefox/126.0" etag="CZ6UixvTxtUlYMBl4WsG" version="24.6.4" type="device">
  <diagram name="Page-1" id="w8LWoz87fvtsjzKu688Y">
    <mxGraphModel dx="3384" dy="1785" grid="1" gridSize="10" guides="1" tooltips="1" connect="1" arrows="1" fold="1" page="1" pageScale="1" pageWidth="1169" pageHeight="827" math="0" shadow="0">
      <root>
        <mxCell id="0" />
        <mxCell id="1" parent="0" />
        <mxCell id="XfSGeymA4cakWY5rj-nf-69" value="" style="rounded=1;whiteSpace=wrap;html=1;fillColor=#e1d5e7;strokeColor=#9673a6;" vertex="1" parent="1">
          <mxGeometry x="706.1" y="330" width="253.9" height="219.78" as="geometry" />
        </mxCell>
        <mxCell id="XfSGeymA4cakWY5rj-nf-13" value="" style="rounded=1;whiteSpace=wrap;html=1;fillColor=#fff2cc;strokeColor=#d6b656;" vertex="1" parent="1">
          <mxGeometry x="128.05" y="318.18" width="261.95" height="231.82" as="geometry" />
        </mxCell>
        <mxCell id="XfSGeymA4cakWY5rj-nf-1" value="&lt;h1 style=&quot;margin-top: 0px;&quot;&gt;LLM generation of healthcare DES models: study protocol&lt;br&gt;&lt;/h1&gt;" style="text;html=1;whiteSpace=wrap;overflow=hidden;rounded=0;" vertex="1" parent="1">
          <mxGeometry x="130" y="120" width="820" height="40" as="geometry" />
        </mxCell>
        <mxCell id="XfSGeymA4cakWY5rj-nf-2" value="&lt;font style=&quot;font-size: 18px;&quot;&gt;&lt;b&gt;Stage 0: Setup &lt;/b&gt;&lt;/font&gt;" style="rounded=1;whiteSpace=wrap;html=1;fillColor=#fff2cc;strokeColor=#d6b656;" vertex="1" parent="1">
          <mxGeometry x="130" y="250" width="260" height="60" as="geometry" />
        </mxCell>
        <mxCell id="XfSGeymA4cakWY5rj-nf-4" value="" style="shape=image;verticalLabelPosition=bottom;labelBackgroundColor=default;verticalAlign=top;aspect=fixed;imageAspect=0;image=https://uxwing.com/wp-content/themes/uxwing/download/arts-graphic-shapes/designer-artist-icon.png;" vertex="1" parent="1">
          <mxGeometry x="148" y="393.74" width="52" height="46.72" as="geometry" />
        </mxCell>
        <mxCell id="XfSGeymA4cakWY5rj-nf-10" value="" style="shape=image;verticalLabelPosition=bottom;labelBackgroundColor=default;verticalAlign=top;aspect=fixed;imageAspect=0;image=https://uxwing.com/wp-content/themes/uxwing/download/clothes-and-accessories/spectacles-icon.png;" vertex="1" parent="1">
          <mxGeometry x="148" y="350.02" width="52" height="33.32" as="geometry" />
        </mxCell>
        <mxCell id="XfSGeymA4cakWY5rj-nf-11" value="&lt;font style=&quot;font-size: 14px;&quot;&gt;Read case study article&lt;/font&gt;" style="text;html=1;align=center;verticalAlign=middle;whiteSpace=wrap;rounded=0;" vertex="1" parent="1">
          <mxGeometry x="210" y="353.34" width="150" height="30" as="geometry" />
        </mxCell>
        <mxCell id="XfSGeymA4cakWY5rj-nf-12" value="&lt;font style=&quot;font-size: 14px;&quot;&gt;Plan and design model&lt;/font&gt;" style="text;html=1;align=center;verticalAlign=middle;whiteSpace=wrap;rounded=0;" vertex="1" parent="1">
          <mxGeometry x="197.42" y="407.65999999999997" width="180" height="30" as="geometry" />
        </mxCell>
        <mxCell id="XfSGeymA4cakWY5rj-nf-20" value="" style="group" vertex="1" connectable="0" parent="1">
          <mxGeometry x="340" y="256.72" width="48.05000000000001" height="46.549999999999955" as="geometry" />
        </mxCell>
        <mxCell id="XfSGeymA4cakWY5rj-nf-18" value="" style="shape=image;verticalLabelPosition=bottom;labelBackgroundColor=default;verticalAlign=top;aspect=fixed;imageAspect=0;image=https://uxwing.com/wp-content/themes/uxwing/download/arrow-direction/forward-restore-icon.png;" vertex="1" parent="XfSGeymA4cakWY5rj-nf-20">
          <mxGeometry width="48.05" height="46.55" as="geometry" />
        </mxCell>
        <mxCell id="XfSGeymA4cakWY5rj-nf-19" value="&lt;div align=&quot;left&quot;&gt;&lt;font style=&quot;font-size: 18px;&quot;&gt;x2&lt;/font&gt;&lt;/div&gt;" style="text;html=1;align=left;verticalAlign=middle;whiteSpace=wrap;rounded=0;" vertex="1" parent="XfSGeymA4cakWY5rj-nf-20">
          <mxGeometry x="11" y="8.279999999999973" width="30" height="30" as="geometry" />
        </mxCell>
        <mxCell id="XfSGeymA4cakWY5rj-nf-21" value="&lt;font style=&quot;font-size: 18px;&quot;&gt;&lt;b&gt;Stage 1: Prompt engineering and code generation &lt;/b&gt;&lt;/font&gt;" style="rounded=1;whiteSpace=wrap;html=1;fillColor=#e1d5e7;strokeColor=#9673a6;" vertex="1" parent="1">
          <mxGeometry x="393" y="250" width="567" height="60" as="geometry" />
        </mxCell>
        <mxCell id="XfSGeymA4cakWY5rj-nf-22" value="" style="rounded=1;whiteSpace=wrap;html=1;fillColor=#e1d5e7;strokeColor=#9673a6;" vertex="1" parent="1">
          <mxGeometry x="400" y="330" width="302.05" height="220" as="geometry" />
        </mxCell>
        <mxCell id="XfSGeymA4cakWY5rj-nf-24" value="&lt;font style=&quot;font-size: 18px;&quot;&gt;&lt;b&gt;Stage 2: Internal replication &lt;/b&gt;&lt;/font&gt;" style="rounded=1;whiteSpace=wrap;html=1;fillColor=#f8cecc;strokeColor=#b85450;" vertex="1" parent="1">
          <mxGeometry x="131.05" y="560" width="468.95" height="60" as="geometry" />
        </mxCell>
        <mxCell id="XfSGeymA4cakWY5rj-nf-26" value="" style="shape=image;verticalLabelPosition=bottom;labelBackgroundColor=default;verticalAlign=top;aspect=fixed;imageAspect=0;image=https://uxwing.com/wp-content/themes/uxwing/download/editing-user-action/edit-list-icon.png;" vertex="1" parent="1">
          <mxGeometry x="130" y="180" width="44.88" height="51.52" as="geometry" />
        </mxCell>
        <mxCell id="XfSGeymA4cakWY5rj-nf-28" value="Record all prompts &amp;amp; code responses " style="text;html=1;align=center;verticalAlign=middle;whiteSpace=wrap;rounded=0;" vertex="1" parent="1">
          <mxGeometry x="240" y="180" width="150" height="50" as="geometry" />
        </mxCell>
        <mxCell id="XfSGeymA4cakWY5rj-nf-30" value="" style="shape=image;verticalLabelPosition=bottom;labelBackgroundColor=default;verticalAlign=top;aspect=fixed;imageAspect=0;image=https://uxwing.com/wp-content/themes/uxwing/download/file-and-folder-type/diary-icon.png;" vertex="1" parent="1">
          <mxGeometry x="420" y="180" width="34.13" height="45.5" as="geometry" />
        </mxCell>
        <mxCell id="XfSGeymA4cakWY5rj-nf-31" value="Log observations on LLM output, behaviour, usage challenges, &amp;amp; issues." style="text;html=1;align=center;verticalAlign=middle;whiteSpace=wrap;rounded=0;" vertex="1" parent="1">
          <mxGeometry x="460" y="175.5" width="150" height="50" as="geometry" />
        </mxCell>
        <mxCell id="XfSGeymA4cakWY5rj-nf-32" value="" style="shape=image;verticalLabelPosition=bottom;labelBackgroundColor=default;verticalAlign=top;aspect=fixed;imageAspect=0;image=https://uxwing.com/wp-content/themes/uxwing/download/banking-finance/computer-report-icon.png;" vertex="1" parent="1">
          <mxGeometry x="652" y="179.20000000000002" width="62" height="51.59" as="geometry" />
        </mxCell>
        <mxCell id="XfSGeymA4cakWY5rj-nf-33" value="Document model design, iterative generated code, documentation &amp;amp; testing on &lt;b&gt;JuypterBook&lt;/b&gt; website." style="text;html=1;align=center;verticalAlign=middle;whiteSpace=wrap;rounded=0;" vertex="1" parent="1">
          <mxGeometry x="720" y="177.75" width="210" height="50" as="geometry" />
        </mxCell>
        <mxCell id="XfSGeymA4cakWY5rj-nf-35" value="&lt;b&gt;a.) generate model using an iterative approach&lt;br&gt;&lt;/b&gt;" style="text;html=1;align=center;verticalAlign=middle;whiteSpace=wrap;rounded=0;" vertex="1" parent="1">
          <mxGeometry x="402" y="306.55" width="278" height="30" as="geometry" />
        </mxCell>
        <mxCell id="XfSGeymA4cakWY5rj-nf-37" value="" style="shape=image;verticalLabelPosition=bottom;labelBackgroundColor=default;verticalAlign=top;aspect=fixed;imageAspect=0;image=https://uxwing.com/wp-content/themes/uxwing/download/logistics-shipping-delivery/boxes-icon.png;" vertex="1" parent="1">
          <mxGeometry x="147.99999999999997" y="455.46" width="49.42" height="50" as="geometry" />
        </mxCell>
        <mxCell id="XfSGeymA4cakWY5rj-nf-38" value="&lt;font style=&quot;font-size: 14px;&quot;&gt;Build reproducible Python 3.10 software environment&lt;/font&gt;" style="text;html=1;align=center;verticalAlign=middle;whiteSpace=wrap;rounded=0;" vertex="1" parent="1">
          <mxGeometry x="200" y="465.46" width="180" height="30" as="geometry" />
        </mxCell>
        <mxCell id="XfSGeymA4cakWY5rj-nf-40" value="&lt;div&gt;Automatic test suite&lt;/div&gt;" style="text;html=1;align=center;verticalAlign=middle;whiteSpace=wrap;rounded=0;" vertex="1" parent="1">
          <mxGeometry x="780.29" y="348.55999999999995" width="118.5" height="30" as="geometry" />
        </mxCell>
        <mxCell id="XfSGeymA4cakWY5rj-nf-41" value="" style="shape=image;verticalLabelPosition=bottom;labelBackgroundColor=default;verticalAlign=top;aspect=fixed;imageAspect=0;image=https://uxwing.com/wp-content/themes/uxwing/download/internet-network-technology/robot-line-icon.png;" vertex="1" parent="1">
          <mxGeometry x="596.05" y="350.0199999999999" width="62" height="46.98" as="geometry" />
        </mxCell>
        <mxCell id="XfSGeymA4cakWY5rj-nf-43" value="" style="shape=image;verticalLabelPosition=bottom;labelBackgroundColor=default;verticalAlign=top;aspect=fixed;imageAspect=0;image=https://uxwing.com/wp-content/themes/uxwing/download/medical-science-lab/laboratory-microscope-icon.png;" vertex="1" parent="1">
          <mxGeometry x="562.3" y="456" width="29.88" height="32.41" as="geometry" />
        </mxCell>
        <mxCell id="XfSGeymA4cakWY5rj-nf-44" value="" style="shape=image;verticalLabelPosition=bottom;labelBackgroundColor=default;verticalAlign=top;aspect=fixed;imageAspect=0;image=https://uxwing.com/wp-content/themes/uxwing/download/file-and-folder-type/audit-report-survey-icon.png;" vertex="1" parent="1">
          <mxGeometry x="518.18" y="454.29999999999995" width="33.88" height="41.7" as="geometry" />
        </mxCell>
        <mxCell id="XfSGeymA4cakWY5rj-nf-45" value="" style="shape=image;verticalLabelPosition=bottom;labelBackgroundColor=default;verticalAlign=top;aspect=fixed;imageAspect=0;image=https://uxwing.com/wp-content/themes/uxwing/download/tools-equipment-construction/settings-line-icon.png;" vertex="1" parent="1">
          <mxGeometry x="736.32" y="346.54999999999995" width="46.1" height="36.01" as="geometry" />
        </mxCell>
        <mxCell id="XfSGeymA4cakWY5rj-nf-58" value="" style="endArrow=classic;html=1;rounded=0;curved=1;" edge="1" parent="1" target="XfSGeymA4cakWY5rj-nf-41">
          <mxGeometry width="50" height="50" relative="1" as="geometry">
            <mxPoint x="488.05" y="366" as="sourcePoint" />
            <mxPoint x="542.18" y="329.81" as="targetPoint" />
            <Array as="points">
              <mxPoint x="518.05" y="346" />
              <mxPoint x="558.05" y="346" />
            </Array>
          </mxGeometry>
        </mxCell>
        <mxCell id="XfSGeymA4cakWY5rj-nf-60" value="&lt;div&gt;Engineer prompt&lt;/div&gt;" style="text;html=1;align=center;verticalAlign=middle;whiteSpace=wrap;rounded=0;" vertex="1" parent="1">
          <mxGeometry x="409.17000000000013" y="384.3400000000001" width="100" height="30" as="geometry" />
        </mxCell>
        <mxCell id="XfSGeymA4cakWY5rj-nf-61" value="" style="shape=image;verticalLabelPosition=bottom;labelBackgroundColor=default;verticalAlign=top;aspect=fixed;imageAspect=0;image=https://uxwing.com/wp-content/themes/uxwing/download/editing-user-action/edit-list-icon.png;" vertex="1" parent="1">
          <mxGeometry x="441.45" y="349.02000000000015" width="33.21" height="38.12" as="geometry" />
        </mxCell>
        <mxCell id="XfSGeymA4cakWY5rj-nf-62" value="" style="endArrow=classic;html=1;rounded=0;curved=1;exitX=0.5;exitY=1;exitDx=0;exitDy=0;" edge="1" parent="1" source="XfSGeymA4cakWY5rj-nf-41" target="XfSGeymA4cakWY5rj-nf-43">
          <mxGeometry width="50" height="50" relative="1" as="geometry">
            <mxPoint x="632.05" y="395.94" as="sourcePoint" />
            <mxPoint x="740.05" y="391.94" as="targetPoint" />
            <Array as="points">
              <mxPoint x="648.05" y="436" />
            </Array>
          </mxGeometry>
        </mxCell>
        <mxCell id="XfSGeymA4cakWY5rj-nf-63" value="&lt;div&gt;LLM&lt;br&gt;&lt;/div&gt;&lt;div&gt;generated&amp;nbsp;&lt;/div&gt;&lt;div&gt;code&lt;/div&gt;" style="text;html=1;align=center;verticalAlign=middle;whiteSpace=wrap;rounded=0;" vertex="1" parent="1">
          <mxGeometry x="621.0500000000001" y="410.0000000000001" width="100" height="30" as="geometry" />
        </mxCell>
        <mxCell id="XfSGeymA4cakWY5rj-nf-65" value="code inspection, diff, formal testing" style="text;html=1;align=center;verticalAlign=middle;whiteSpace=wrap;rounded=0;" vertex="1" parent="1">
          <mxGeometry x="454.13" y="499.78000000000003" width="188.05" height="30" as="geometry" />
        </mxCell>
        <mxCell id="XfSGeymA4cakWY5rj-nf-68" value="" style="endArrow=classic;html=1;rounded=0;curved=1;entryX=0.5;entryY=1;entryDx=0;entryDy=0;" edge="1" parent="1" source="XfSGeymA4cakWY5rj-nf-44" target="XfSGeymA4cakWY5rj-nf-60">
          <mxGeometry width="50" height="50" relative="1" as="geometry">
            <mxPoint x="473.17" y="456" as="sourcePoint" />
            <mxPoint x="424.17" y="519" as="targetPoint" />
            <Array as="points">
              <mxPoint x="488.05" y="476" />
              <mxPoint x="458.05" y="456" />
            </Array>
          </mxGeometry>
        </mxCell>
        <mxCell id="XfSGeymA4cakWY5rj-nf-70" value="&lt;b&gt;b.) finalise code and research compendium&lt;br&gt;&lt;/b&gt;" style="text;html=1;align=left;verticalAlign=middle;whiteSpace=wrap;rounded=0;" vertex="1" parent="1">
          <mxGeometry x="706.1" y="306.55" width="250" height="30" as="geometry" />
        </mxCell>
        <mxCell id="XfSGeymA4cakWY5rj-nf-71" value="" style="group" vertex="1" connectable="0" parent="1">
          <mxGeometry x="910" y="256.72" width="48.05000000000001" height="46.549999999999955" as="geometry" />
        </mxCell>
        <mxCell id="XfSGeymA4cakWY5rj-nf-72" value="" style="shape=image;verticalLabelPosition=bottom;labelBackgroundColor=default;verticalAlign=top;aspect=fixed;imageAspect=0;image=https://uxwing.com/wp-content/themes/uxwing/download/arrow-direction/forward-restore-icon.png;" vertex="1" parent="XfSGeymA4cakWY5rj-nf-71">
          <mxGeometry width="48.05" height="46.55" as="geometry" />
        </mxCell>
        <mxCell id="XfSGeymA4cakWY5rj-nf-73" value="&lt;div align=&quot;left&quot;&gt;&lt;font style=&quot;font-size: 18px;&quot;&gt;x2&lt;/font&gt;&lt;/div&gt;" style="text;html=1;align=left;verticalAlign=middle;whiteSpace=wrap;rounded=0;" vertex="1" parent="XfSGeymA4cakWY5rj-nf-71">
          <mxGeometry x="11" y="8.279999999999973" width="30" height="30" as="geometry" />
        </mxCell>
        <mxCell id="XfSGeymA4cakWY5rj-nf-74" value="" style="shape=image;verticalLabelPosition=bottom;labelBackgroundColor=default;verticalAlign=top;aspect=fixed;imageAspect=0;image=https://uxwing.com/wp-content/themes/uxwing/download/file-and-folder-type/diary-icon.png;" vertex="1" parent="1">
          <mxGeometry x="736.3199999999999" y="392.47999999999996" width="34.13" height="45.5" as="geometry" />
        </mxCell>
        <mxCell id="XfSGeymA4cakWY5rj-nf-75" value="DOCS: to run model" style="text;html=1;align=center;verticalAlign=middle;whiteSpace=wrap;rounded=0;" vertex="1" parent="1">
          <mxGeometry x="776.89" y="400.22999999999996" width="133.4" height="30" as="geometry" />
        </mxCell>
        <mxCell id="XfSGeymA4cakWY5rj-nf-76" value="" style="shape=image;verticalLabelPosition=bottom;labelBackgroundColor=default;verticalAlign=top;aspect=fixed;imageAspect=0;image=https://uxwing.com/wp-content/themes/uxwing/download/household-and-furniture/housekeeping-icon.png;" vertex="1" parent="1">
          <mxGeometry x="736.3199999999999" y="445.19999999999993" width="42.13" height="40" as="geometry" />
        </mxCell>
        <mxCell id="XfSGeymA4cakWY5rj-nf-77" value="Autoformat Python code" style="text;html=1;align=center;verticalAlign=middle;whiteSpace=wrap;rounded=0;" vertex="1" parent="1">
          <mxGeometry x="780.29" y="450.19999999999993" width="133.4" height="30" as="geometry" />
        </mxCell>
        <mxCell id="XfSGeymA4cakWY5rj-nf-79" value="" style="shape=image;verticalLabelPosition=bottom;labelBackgroundColor=default;verticalAlign=top;aspect=fixed;imageAspect=0;image=https://uxwing.com/wp-content/themes/uxwing/download/medical-science-lab/laboratory-microscope-icon.png;" vertex="1" parent="1">
          <mxGeometry x="736.3199999999999" y="489.84" width="39.1" height="42.41" as="geometry" />
        </mxCell>
        <mxCell id="XfSGeymA4cakWY5rj-nf-80" value="Independent review of code and tests" style="text;html=1;align=center;verticalAlign=middle;whiteSpace=wrap;rounded=0;" vertex="1" parent="1">
          <mxGeometry x="765.39" y="496.05" width="144.61" height="30" as="geometry" />
        </mxCell>
        <mxCell id="XfSGeymA4cakWY5rj-nf-87" value="" style="group" vertex="1" connectable="0" parent="1">
          <mxGeometry x="536" y="566.72" width="48.05000000000001" height="46.549999999999955" as="geometry" />
        </mxCell>
        <mxCell id="XfSGeymA4cakWY5rj-nf-88" value="" style="shape=image;verticalLabelPosition=bottom;labelBackgroundColor=default;verticalAlign=top;aspect=fixed;imageAspect=0;image=https://uxwing.com/wp-content/themes/uxwing/download/arrow-direction/forward-restore-icon.png;" vertex="1" parent="XfSGeymA4cakWY5rj-nf-87">
          <mxGeometry width="48.05" height="46.55" as="geometry" />
        </mxCell>
        <mxCell id="XfSGeymA4cakWY5rj-nf-89" value="&lt;div align=&quot;left&quot;&gt;&lt;font style=&quot;font-size: 18px;&quot;&gt;x2&lt;/font&gt;&lt;/div&gt;" style="text;html=1;align=left;verticalAlign=middle;whiteSpace=wrap;rounded=0;" vertex="1" parent="XfSGeymA4cakWY5rj-nf-87">
          <mxGeometry x="11" y="8.279999999999973" width="30" height="30" as="geometry" />
        </mxCell>
        <mxCell id="XfSGeymA4cakWY5rj-nf-94" value="" style="rounded=1;whiteSpace=wrap;html=1;fillColor=#f8cecc;strokeColor=#b85450;" vertex="1" parent="1">
          <mxGeometry x="509.17" y="641.73" width="90.83" height="218.27" as="geometry" />
        </mxCell>
        <mxCell id="XfSGeymA4cakWY5rj-nf-95" value="" style="rounded=1;whiteSpace=wrap;html=1;fillColor=#f8cecc;strokeColor=#b85450;" vertex="1" parent="1">
          <mxGeometry x="131.05" y="643.28" width="368.95" height="220" as="geometry" />
        </mxCell>
        <mxCell id="XfSGeymA4cakWY5rj-nf-97" value="" style="shape=image;verticalLabelPosition=bottom;labelBackgroundColor=default;verticalAlign=top;aspect=fixed;imageAspect=0;image=https://uxwing.com/wp-content/themes/uxwing/download/internet-network-technology/robot-line-icon.png;" vertex="1" parent="1">
          <mxGeometry x="379.44999999999993" y="662.5" width="62" height="46.98" as="geometry" />
        </mxCell>
        <mxCell id="XfSGeymA4cakWY5rj-nf-98" value="" style="shape=image;verticalLabelPosition=bottom;labelBackgroundColor=default;verticalAlign=top;aspect=fixed;imageAspect=0;image=https://uxwing.com/wp-content/themes/uxwing/download/medical-science-lab/laboratory-microscope-icon.png;" vertex="1" parent="1">
          <mxGeometry x="319.99999999999994" y="789.64" width="29.88" height="32.41" as="geometry" />
        </mxCell>
        <mxCell id="XfSGeymA4cakWY5rj-nf-99" value="" style="shape=image;verticalLabelPosition=bottom;labelBackgroundColor=default;verticalAlign=top;aspect=fixed;imageAspect=0;image=https://uxwing.com/wp-content/themes/uxwing/download/file-and-folder-type/audit-report-survey-icon.png;" vertex="1" parent="1">
          <mxGeometry x="270.47999999999996" y="784.9999999999999" width="33.88" height="41.7" as="geometry" />
        </mxCell>
        <mxCell id="XfSGeymA4cakWY5rj-nf-100" value="" style="shape=image;verticalLabelPosition=bottom;labelBackgroundColor=default;verticalAlign=top;aspect=fixed;imageAspect=0;image=https://uxwing.com/wp-content/themes/uxwing/download/tools-equipment-construction/settings-line-icon.png;" vertex="1" parent="1">
          <mxGeometry x="531.5400000000001" y="649.9999999999999" width="46.1" height="36.01" as="geometry" />
        </mxCell>
        <mxCell id="XfSGeymA4cakWY5rj-nf-101" value="" style="endArrow=classic;html=1;rounded=0;curved=1;" edge="1" parent="1" target="XfSGeymA4cakWY5rj-nf-97">
          <mxGeometry width="50" height="50" relative="1" as="geometry">
            <mxPoint x="219.10000000000002" y="679.28" as="sourcePoint" />
            <mxPoint x="273.22999999999996" y="643.0899999999999" as="targetPoint" />
            <Array as="points">
              <mxPoint x="249.09999999999997" y="659.28" />
              <mxPoint x="330" y="660" />
            </Array>
          </mxGeometry>
        </mxCell>
        <mxCell id="XfSGeymA4cakWY5rj-nf-102" value="&lt;b&gt;Reuse existing prompt&lt;/b&gt;" style="text;html=1;align=center;verticalAlign=middle;whiteSpace=wrap;rounded=0;" vertex="1" parent="1">
          <mxGeometry x="140.22" y="697.62" width="99.78" height="30" as="geometry" />
        </mxCell>
        <mxCell id="XfSGeymA4cakWY5rj-nf-103" value="" style="shape=image;verticalLabelPosition=bottom;labelBackgroundColor=default;verticalAlign=top;aspect=fixed;imageAspect=0;image=https://uxwing.com/wp-content/themes/uxwing/download/editing-user-action/edit-list-icon.png;" vertex="1" parent="1">
          <mxGeometry x="172.5" y="662.3000000000002" width="33.21" height="38.12" as="geometry" />
        </mxCell>
        <mxCell id="XfSGeymA4cakWY5rj-nf-104" value="" style="endArrow=classic;html=1;rounded=0;curved=1;exitX=0.5;exitY=1;exitDx=0;exitDy=0;" edge="1" parent="1" source="XfSGeymA4cakWY5rj-nf-97" target="XfSGeymA4cakWY5rj-nf-98">
          <mxGeometry width="50" height="50" relative="1" as="geometry">
            <mxPoint x="363.09999999999997" y="709.22" as="sourcePoint" />
            <mxPoint x="471.09999999999997" y="705.22" as="targetPoint" />
            <Array as="points">
              <mxPoint x="410" y="770" />
            </Array>
          </mxGeometry>
        </mxCell>
        <mxCell id="XfSGeymA4cakWY5rj-nf-105" value="&lt;div&gt;LLM&lt;br&gt;&lt;/div&gt;&lt;div&gt;generated&amp;nbsp;&lt;/div&gt;&lt;div&gt;code&lt;/div&gt;" style="text;html=1;align=center;verticalAlign=middle;whiteSpace=wrap;rounded=0;" vertex="1" parent="1">
          <mxGeometry x="393.00000000000006" y="727.6200000000001" width="100" height="30" as="geometry" />
        </mxCell>
        <mxCell id="XfSGeymA4cakWY5rj-nf-106" value="code inspection, diff, formal testing" style="text;html=1;align=center;verticalAlign=middle;whiteSpace=wrap;rounded=0;" vertex="1" parent="1">
          <mxGeometry x="207.42" y="827" width="192.58" height="30" as="geometry" />
        </mxCell>
        <mxCell id="XfSGeymA4cakWY5rj-nf-107" value="" style="endArrow=classic;html=1;rounded=0;curved=1;entryX=0.5;entryY=1;entryDx=0;entryDy=0;" edge="1" parent="1" source="XfSGeymA4cakWY5rj-nf-99" target="XfSGeymA4cakWY5rj-nf-102">
          <mxGeometry width="50" height="50" relative="1" as="geometry">
            <mxPoint x="204.22000000000003" y="769.28" as="sourcePoint" />
            <mxPoint x="155.22000000000003" y="832.28" as="targetPoint" />
            <Array as="points">
              <mxPoint x="240" y="800" />
              <mxPoint x="189.10000000000002" y="769.28" />
            </Array>
          </mxGeometry>
        </mxCell>
        <mxCell id="XfSGeymA4cakWY5rj-nf-108" value="" style="shape=image;verticalLabelPosition=bottom;labelBackgroundColor=default;verticalAlign=top;aspect=fixed;imageAspect=0;image=https://uxwing.com/wp-content/themes/uxwing/download/file-and-folder-type/diary-icon.png;" vertex="1" parent="1">
          <mxGeometry x="537.52" y="697.6200000000001" width="34.13" height="45.5" as="geometry" />
        </mxCell>
        <mxCell id="XfSGeymA4cakWY5rj-nf-110" value="" style="shape=image;verticalLabelPosition=bottom;labelBackgroundColor=default;verticalAlign=top;aspect=fixed;imageAspect=0;image=https://uxwing.com/wp-content/themes/uxwing/download/household-and-furniture/housekeeping-icon.png;" vertex="1" parent="1">
          <mxGeometry x="535.9999999999999" y="757.62" width="42.13" height="40" as="geometry" />
        </mxCell>
        <mxCell id="XfSGeymA4cakWY5rj-nf-112" value="" style="shape=image;verticalLabelPosition=bottom;labelBackgroundColor=default;verticalAlign=top;aspect=fixed;imageAspect=0;image=https://uxwing.com/wp-content/themes/uxwing/download/medical-science-lab/laboratory-microscope-icon.png;" vertex="1" parent="1">
          <mxGeometry x="537.52" y="799.9999999999999" width="39.1" height="42.41" as="geometry" />
        </mxCell>
        <mxCell id="XfSGeymA4cakWY5rj-nf-114" value="&lt;b&gt;a.) attempt to reproduce model &lt;/b&gt;&lt;i&gt;&lt;b&gt;design&lt;/b&gt;&lt;/i&gt;&lt;b&gt; reusing prompts&lt;br&gt;&lt;/b&gt;" style="text;html=1;align=center;verticalAlign=middle;whiteSpace=wrap;rounded=0;" vertex="1" parent="1">
          <mxGeometry x="128" y="620" width="352" height="30" as="geometry" />
        </mxCell>
        <mxCell id="XfSGeymA4cakWY5rj-nf-122" value="" style="endArrow=classic;html=1;rounded=0;curved=1;exitX=0.5;exitY=1;exitDx=0;exitDy=0;" edge="1" parent="1">
          <mxGeometry width="50" height="50" relative="1" as="geometry">
            <mxPoint x="307.41999999999996" y="785" as="sourcePoint" />
            <mxPoint x="367.41999999999996" y="695" as="targetPoint" />
            <Array as="points">
              <mxPoint x="297.42" y="727.76" />
            </Array>
          </mxGeometry>
        </mxCell>
        <mxCell id="XfSGeymA4cakWY5rj-nf-123" value="Additional prompts" style="text;html=1;align=center;verticalAlign=middle;whiteSpace=wrap;rounded=0;" vertex="1" parent="1">
          <mxGeometry x="249.88" y="697.6200000000001" width="100" height="30" as="geometry" />
        </mxCell>
        <mxCell id="XfSGeymA4cakWY5rj-nf-125" value="&lt;b&gt;b.) finalise code&lt;br&gt;&lt;/b&gt;" style="text;html=1;align=left;verticalAlign=middle;whiteSpace=wrap;rounded=0;" vertex="1" parent="1">
          <mxGeometry x="501.02" y="620" width="100" height="30" as="geometry" />
        </mxCell>
        <mxCell id="XfSGeymA4cakWY5rj-nf-126" value="&lt;font style=&quot;font-size: 18px;&quot;&gt;&lt;b&gt;Stage 3: Evaluation and preservation &lt;/b&gt;&lt;/font&gt;" style="rounded=1;whiteSpace=wrap;html=1;fillColor=#dae8fc;strokeColor=#6c8ebf;" vertex="1" parent="1">
          <mxGeometry x="610" y="560" width="350" height="60" as="geometry" />
        </mxCell>
        <mxCell id="XfSGeymA4cakWY5rj-nf-131" value="" style="rounded=1;whiteSpace=wrap;html=1;fillColor=#dae8fc;strokeColor=#6c8ebf;" vertex="1" parent="1">
          <mxGeometry x="610" y="639.59" width="350" height="227.38" as="geometry" />
        </mxCell>
        <mxCell id="XfSGeymA4cakWY5rj-nf-132" value="" style="shape=image;verticalLabelPosition=bottom;labelBackgroundColor=default;verticalAlign=top;aspect=fixed;imageAspect=0;image=https://uxwing.com/wp-content/themes/uxwing/download/web-app-development/coding-icon.png;" vertex="1" parent="1">
          <mxGeometry x="627.85" y="660.42" width="53.61" height="40" as="geometry" />
        </mxCell>
        <mxCell id="XfSGeymA4cakWY5rj-nf-133" value="" style="shape=image;verticalLabelPosition=bottom;labelBackgroundColor=default;verticalAlign=top;aspect=fixed;imageAspect=0;image=https://uxwing.com/wp-content/themes/uxwing/download/file-and-folder-type/diary-icon.png;" vertex="1" parent="1">
          <mxGeometry x="807.94" y="654.9200000000001" width="34.13" height="45.5" as="geometry" />
        </mxCell>
        <mxCell id="XfSGeymA4cakWY5rj-nf-134" value="" style="shape=image;verticalLabelPosition=bottom;labelBackgroundColor=default;verticalAlign=top;aspect=fixed;imageAspect=0;image=https://uxwing.com/wp-content/themes/uxwing/download/editing-user-action/edit-list-icon.png;" vertex="1" parent="1">
          <mxGeometry x="886.0999999999999" y="657.2500000000001" width="33.21" height="38.12" as="geometry" />
        </mxCell>
        <mxCell id="XfSGeymA4cakWY5rj-nf-135" value="&lt;b&gt;Review &lt;/b&gt;stage 1/2 code, model KPIs, logs, and prompting. " style="text;html=1;align=center;verticalAlign=middle;whiteSpace=wrap;rounded=0;" vertex="1" parent="1">
          <mxGeometry x="610" y="709.48" width="350" height="30" as="geometry" />
        </mxCell>
        <mxCell id="XfSGeymA4cakWY5rj-nf-137" value="" style="shape=image;verticalLabelPosition=bottom;labelBackgroundColor=default;verticalAlign=top;aspect=fixed;imageAspect=0;image=https://uxwing.com/wp-content/themes/uxwing/download/business-professional-services/column-chart-icon.png;" vertex="1" parent="1">
          <mxGeometry x="713.93" y="657.25" width="50" height="43.17" as="geometry" />
        </mxCell>
        <mxCell id="XfSGeymA4cakWY5rj-nf-138" value="" style="shape=image;verticalLabelPosition=bottom;labelBackgroundColor=default;verticalAlign=top;aspect=fixed;imageAspect=0;image=https://uxwing.com/wp-content/themes/uxwing/download/communication-chat-call/archive-line-icon.png;" vertex="1" parent="1">
          <mxGeometry x="837.7300000000001" y="751.5500000000001" width="51.2" height="46.06" as="geometry" />
        </mxCell>
        <mxCell id="XfSGeymA4cakWY5rj-nf-139" value="" style="shape=image;verticalLabelPosition=bottom;labelBackgroundColor=default;verticalAlign=top;aspect=fixed;imageAspect=0;image=https://uxwing.com/wp-content/themes/uxwing/download/domain-hosting/cloud-data-download-icon.png;" vertex="1" parent="1">
          <mxGeometry x="670.3799999999999" y="743.1200000000001" width="62" height="54.49" as="geometry" />
        </mxCell>
        <mxCell id="XfSGeymA4cakWY5rj-nf-142" value="Docker file and hosted image" style="text;html=1;align=center;verticalAlign=middle;whiteSpace=wrap;rounded=0;" vertex="1" parent="1">
          <mxGeometry x="642.1800000000001" y="807.89" width="122.15" height="32.11" as="geometry" />
        </mxCell>
        <mxCell id="XfSGeymA4cakWY5rj-nf-143" value="Archive on Zenodo (mint DOI)" style="text;html=1;align=center;verticalAlign=middle;whiteSpace=wrap;rounded=0;" vertex="1" parent="1">
          <mxGeometry x="802.2599999999999" y="810.3" width="122.15" height="32.11" as="geometry" />
        </mxCell>
        <mxCell id="XfSGeymA4cakWY5rj-nf-145" value="" style="shape=image;verticalLabelPosition=bottom;labelBackgroundColor=default;verticalAlign=top;aspect=fixed;imageAspect=0;image=https://uxwing.com/wp-content/themes/uxwing/download/internet-network-technology/robot-line-icon.png;" vertex="1" parent="1">
          <mxGeometry x="178" y="179.19999999999996" width="62" height="46.98" as="geometry" />
        </mxCell>
        <mxCell id="XfSGeymA4cakWY5rj-nf-146" value="" style="shape=image;verticalLabelPosition=bottom;labelBackgroundColor=default;verticalAlign=top;aspect=fixed;imageAspect=0;image=https://uxwing.com/wp-content/themes/uxwing/download/communication-chat-call/speech-bubble-line-icon.png;" vertex="1" parent="1">
          <mxGeometry x="213.88" y="159.99999999999997" width="36" height="39.56" as="geometry" />
        </mxCell>
        <mxCell id="XfSGeymA4cakWY5rj-nf-147" value="" style="shape=image;verticalLabelPosition=bottom;labelBackgroundColor=default;verticalAlign=top;aspect=fixed;imageAspect=0;image=https://uxwing.com/wp-content/themes/uxwing/download/communication-chat-call/speech-bubble-line-icon.png;" vertex="1" parent="1">
          <mxGeometry x="645.4599999999999" y="332.31999999999994" width="36" height="39.56" as="geometry" />
        </mxCell>
        <mxCell id="XfSGeymA4cakWY5rj-nf-148" value="" style="shape=image;verticalLabelPosition=bottom;labelBackgroundColor=default;verticalAlign=top;aspect=fixed;imageAspect=0;image=https://uxwing.com/wp-content/themes/uxwing/download/communication-chat-call/speech-bubble-line-icon.png;" vertex="1" parent="1">
          <mxGeometry x="425" y="646.4499999999999" width="36" height="39.56" as="geometry" />
        </mxCell>
      </root>
    </mxGraphModel>
  </diagram>
</mxfile>
